P2
# Created by GIMP version 2.10.22 PNM plug-in
50 50
255
88
69
37
7
1
0
0
0
0
0
0
0
0
0
0
0
0
0
0
0
0
0
0
0
0
0
0
0
0
0
0
0
0
0
0
0
0
0
0
0
0
0
0
0
0
0
0
0
0
0
135
123
88
62
43
21
3
0
0
0
0
0
0
0
0
0
0
0
0
0
0
0
0
0
0
0
0
0
0
0
0
0
0
0
0
0
0
0
0
0
0
0
0
0
0
0
0
0
0
0
140
160
143
126
104
65
23
0
0
0
0
0
0
0
0
0
0
0
0
0
0
0
0
0
0
0
0
0
0
0
0
0
0
0
0
0
0
0
0
0
0
0
0
0
0
0
0
0
0
0
128
166
173
173
161
109
47
1
0
0
0
0
0
0
0
0
0
0
0
0
0
1
0
1
1
0
0
0
0
0
0
0
0
0
0
0
0
0
0
0
0
0
0
0
0
0
0
0
0
0
91
125
137
160
182
134
63
3
0
0
0
0
0
0
0
0
0
0
0
3
16
27
31
35
33
20
10
14
15
21
23
20
10
3
2
2
2
2
1
0
0
0
0
0
0
0
0
0
0
0
45
64
90
142
181
136
66
2
0
0
1
0
0
0
0
0
0
0
0
16
46
73
80
87
85
56
42
54
59
71
77
75
66
62
60
61
63
62
48
28
14
4
1
0
0
0
0
0
0
0
30
38
69
134
178
134
64
3
6
19
25
15
3
0
0
0
0
0
1
30
74
115
122
133
129
88
74
100
105
126
134
135
130
127
127
128
131
131
107
78
57
32
8
0
0
0
0
0
0
0
71
86
81
122
161
120
57
5
28
54
67
45
16
0
0
0
0
0
1
31
76
117
124
134
130
90
86
122
128
151
162
165
169
170
170
171
175
176
152
131
114
73
29
0
0
0
0
0
0
0
116
139
110
128
165
123
57
12
48
88
108
74
30
1
0
0
0
0
0
23
60
93
100
98
91
62
59
83
90
108
117
120
125
126
127
128
131
135
139
164
163
111
48
1
0
0
0
0
0
0
132
158
125
134
171
127
61
14
52
95
116
81
34
1
0
0
0
0
0
24
64
102
110
99
83
52
30
34
40
49
53
56
59
60
60
61
64
80
127
177
182
128
56
2
0
0
0
0
0
0
126
153
121
136
173
130
62
14
51
92
113
79
34
0
0
0
0
0
0
22
61
101
114
120
109
67
25
2
0
1
1
1
2
2
2
2
7
58
124
174
171
116
50
1
0
0
0
0
0
0
82
101
91
131
171
128
62
15
54
101
123
85
36
1
0
0
0
0
0
11
37
65
81
94
88
54
19
0
0
0
0
0
0
0
0
0
21
73
133
167
145
89
32
0
0
0
0
0
0
0
33
42
73
138
183
138
67
9
45
86
111
78
35
0
0
0
0
0
0
2
11
25
38
49
47
28
6
0
0
0
0
0
0
0
0
4
45
103
155
166
124
64
12
0
0
0
0
0
0
0
8
17
72
146
190
146
71
5
40
91
127
91
42
9
1
0
0
0
0
0
0
1
4
11
11
4
1
0
0
0
0
0
0
0
0
22
71
129
170
171
118
51
3
0
0
0
0
0
0
0
41
52
75
137
180
136
66
2
30
70
102
82
67
50
26
4
0
0
0
0
0
0
0
0
0
0
0
0
0
0
0
0
2
12
30
59
103
149
155
133
82
32
0
0
0
0
0
0
0
0
80
99
90
131
172
129
61
2
12
40
69
91
113
100
61
21
0
0
0
0
0
0
0
0
0
0
0
0
0
0
5
24
39
55
86
113
132
153
125
81
40
8
0
0
0
0
0
0
0
0
109
131
106
131
170
127
60
2
1
18
58
107
143
135
86
33
1
0
0
0
0
0
0
0
0
0
0
0
0
0
24
59
89
100
140
165
155
126
80
37
3
0
0
0
0
0
0
0
0
0
111
135
110
132
170
126
60
2
0
7
38
77
107
107
69
27
9
23
30
25
10
1
1
1
0
0
0
0
0
1
37
87
127
126
160
177
154
100
46
7
0
0
0
0
0
0
0
0
0
0
118
142
113
128
165
122
58
2
0
1
12
35
54
57
36
18
42
76
92
81
49
27
33
32
16
3
0
0
0
0
30
70
103
96
115
126
104
61
19
0
0
0
0
0
0
0
0
0
0
0
127
151
117
117
149
108
50
1
0
0
0
2
9
13
7
27
77
131
155
139
90
68
93
95
65
27
1
0
0
0
12
37
55
48
53
57
45
22
3
0
0
0
0
0
0
0
0
0
0
0
134
160
119
94
111
80
35
0
0
0
0
0
0
0
1
33
93
155
183
166
112
105
150
160
116
57
8
1
0
0
1
7
14
7
2
2
1
0
0
0
0
0
0
0
0
0
0
0
0
0
134
160
118
87
98
70
30
0
0
0
0
0
0
0
0
21
65
110
134
120
85
111
170
188
143
74
26
26
17
3
0
0
0
0
0
0
0
0
0
0
0
0
0
0
0
0
0
0
0
0
121
146
109
98
124
88
37
1
0
0
0
0
0
0
0
4
26
51
63
55
42
76
121
139
103
57
51
71
49
19
0
0
0
0
0
0
0
0
0
0
0
0
0
0
0
0
0
0
0
0
82
99
76
76
100
70
30
0
0
0
0
0
0
0
0
0
0
1
2
2
6
30
56
65
47
42
82
116
86
41
4
0
0
0
0
0
0
1
1
1
0
0
0
0
0
0
0
0
0
0
78
94
68
48
54
37
12
0
0
0
0
0
0
0
0
0
0
0
0
0
0
0
2
3
1
40
92
131
109
63
19
0
0
0
1
11
28
42
49
45
26
5
0
0
0
0
0
0
0
0
115
138
97
45
15
7
1
0
0
0
0
0
0
0
0
0
0
0
0
0
0
0
0
0
1
35
87
133
132
89
40
4
0
0
12
44
78
100
111
102
65
24
0
0
0
0
0
0
0
0
121
147
103
46
2
0
0
0
0
0
0
0
0
0
0
0
0
0
0
0
0
0
0
0
0
19
68
120
147
118
65
16
0
2
35
84
132
152
159
146
94
37
1
0
0
0
0
0
0
0
81
99
69
29
0
0
0
0
0
0
0
0
0
0
0
0
0
0
0
0
0
0
0
0
0
5
66
135
182
154
91
30
0
8
55
117
164
167
150
126
78
30
0
0
0
0
0
0
0
0
33
41
28
6
0
0
0
0
0
0
0
0
0
0
0
0
0
0
0
0
0
0
0
0
0
3
64
136
184
157
93
31
0
14
66
129
174
171
144
103
61
25
2
0
0
0
0
0
0
0
0
2
0
0
0
0
0
0
0
0
3
5
2
4
2
0
0
0
0
0
0
0
0
0
0
0
49
107
148
124
72
21
0
8
54
115
165
176
167
135
108
75
38
7
0
0
0
0
0
0
0
1
0
0
0
0
0
0
14
50
83
92
87
82
70
42
10
0
0
0
0
0
0
0
0
1
36
87
126
104
57
15
0
1
30
76
125
156
169
172
171
140
86
33
1
0
0
0
0
0
30
37
24
5
0
0
0
0
54
124
177
186
168
162
142
91
36
0
0
0
0
0
0
0
0
0
22
54
82
66
36
7
0
0
5
34
69
105
141
183
201
184
126
59
10
0
0
0
0
0
70
87
59
24
0
0
0
3
92
184
234
234
217
208
188
124
52
2
0
0
0
0
0
0
0
0
14
43
62
50
24
3
0
0
0
3
21
49
88
137
169
177
138
74
20
0
0
0
0
0
100
123
84
35
1
0
0
9
107
204
243
232
194
166
142
91
36
0
0
0
0
0
0
0
0
0
28
69
101
82
44
9
0
0
0
0
5
30
63
102
144
168
137
77
23
0
0
0
0
0
70
87
59
24
0
0
0
2
86
173
218
198
141
92
70
42
10
0
0
0
0
0
0
0
0
1
41
94
135
112
63
18
0
0
0
0
28
73
116
138
155
160
125
69
20
0
0
0
0
0
30
37
24
5
0
0
0
0
47
109
151
136
93
49
32
26
25
25
25
25
25
25
25
25
25
24
47
95
135
112
63
18
0
0
0
1
53
120
174
180
159
125
84
42
8
0
0
0
0
0
3
16
25
19
6
1
0
0
12
54
97
132
120
104
88
81
80
80
80
80
80
80
80
80
80
78
75
80
102
81
44
9
0
0
0
2
66
142
195
185
137
80
38
12
1
0
0
0
0
0
19
51
75
62
32
5
0
0
2
34
87
138
155
151
142
138
137
137
137
137
137
137
137
137
137
135
122
84
61
41
19
2
0
0
0
2
66
140
192
177
119
51
5
0
0
0
0
0
0
0
39
90
129
108
62
19
3
18
32
39
65
104
133
150
160
163
163
163
163
163
163
163
163
163
163
161
146
95
42
9
2
0
0
0
0
1
59
129
180
170
117
55
7
0
0
0
0
0
0
0
47
108
154
135
83
29
22
58
87
83
71
66
81
101
113
117
118
118
118
118
118
118
118
118
118
116
103
65
24
0
0
0
0
0
0
1
48
113
168
175
141
86
37
3
0
0
0
0
0
0
37
91
136
134
88
35
45
102
145
133
112
89
83
80
81
90
85
68
57
54
54
54
54
54
54
53
46
26
5
0
0
0
0
0
0
4
37
83
128
153
159
120
64
18
0
0
0
0
0
0
21
62
102
115
77
32
59
126
173
153
141
154
164
163
151
157
143
100
63
35
11
1
1
1
1
1
1
0
0
0
0
0
0
3
21
45
74
107
131
147
152
129
76
26
1
0
0
0
0
0
5
31
59
74
57
31
57
120
164
145
168
215
233
235
225
219
201
150
123
80
36
0
0
0
0
0
0
0
0
0
0
2
8
37
69
102
131
159
168
157
124
91
51
17
0
0
0
0
0
0
1
13
42
70
81
54
55
105
145
135
183
237
251
254
250
240
206
165
167
119
55
3
0
0
0
0
0
0
0
7
31
53
66
87
123
149
165
173
164
128
80
44
19
3
0
0
0
0
0
0
0
13
52
96
117
79
63
114
158
141
185
244
255
255
255
250
212
157
161
115
54
1
0
0
0
0
0
0
7
43
86
121
132
138
156
152
140
129
111
75
37
6
0
0
0
0
0
0
0
0
0
8
41
77
96
65
57
110
156
145
177
235
254
255
255
247
196
147
151
107
47
2
0
0
0
0
1
12
43
88
141
175
176
159
131
106
84
65
48
26
5
0
0
0
0
0
0
0
0
0
0
2
19
41
52
35
34
72
111
131
165
200
244
254
251
225
152
100
100
68
28
0
0
0
0
0
7
38
80
128
165
174
149
117
79
50
28
12
2
0
0
0
0
0
0
0
0
0
0
0
0
0
2
8
13
7
7
29
57
85
109
123
178
215
207
166
107
61
45
28
7
0
0
0
0
0
14
54
104
137
133
121
90
58
28
6
0
0
0
0
0
0
0
0
0
0
0
0
0
0
0
0
0
0
0
0
0
1
12
34
46
45
70
104
117
127
98
52
14
0
0
0
0
0
0
0
7
37
71
92
76
57
31
8
0
0
0
0
0
0
0
0
0
0
0
0
0
0
0
0
0
0
0
0
0
0
0
0
0
0
2
0
0
25
54
79
65
35
7
0
0
0
0
0
0
0
1
12
30
37
25
7
0
0
0
0
0
0
0
0
0
0
0
0
0
0
0
0
0
0
