P2
# Created by GIMP version 2.10.24 PNM plug-in
50 50
255
80
60
75
120
90
97
98
91
101
87
69
56
52
86
118
98
71
74
84
109
100
105
141
158
148
175
189
200
196
164
148
168
223
252
221
177
186
187
161
185
210
197
209
233
231
211
216
232
224
230
34
66
34
67
51
63
80
71
69
75
51
34
33
56
97
103
81
84
84
104
96
103
143
156
173
176
178
204
212
200
160
165
228
254
212
165
158
161
190
217
229
221
216
227
234
225
220
232
244
250
40
71
40
56
37
30
70
52
47
48
45
42
40
61
78
83
98
86
98
123
132
129
132
150
179
185
175
182
191
208
205
159
175
236
212
145
136
185
226
239
250
245
237
238
246
251
249
247
249
252
74
60
33
66
51
33
56
41
45
64
68
64
52
81
75
64
85
84
103
130
135
126
119
143
150
171
190
175
175
199
213
181
174
231
214
144
157
180
207
250
255
255
248
244
229
229
247
242
229
240
81
39
20
55
67
31
31
57
68
66
66
62
65
76
53
45
78
88
86
127
130
107
101
129
160
183
185
169
176
171
179
167
176
224
227
184
189
195
126
54
161
253
251
158
47
155
235
244
246
245
53
34
11
16
29
40
55
65
66
56
45
37
57
70
54
47
67
79
72
87
87
76
90
140
178
204
200
186
168
144
142
161
180
209
220
208
217
209
111
0
25
110
110
25
0
136
228
235
246
238
12
5
7
18
9
36
65
58
59
70
57
47
60
76
63
52
54
65
63
57
69
85
123
150
164
175
169
136
110
111
134
185
194
172
189
190
220
238
146
23
0
8
8
0
26
139
174
183
214
231
7
2
11
18
3
14
46
54
57
64
57
56
76
86
75
65
63
65
56
68
77
89
128
154
148
153
171
148
110
116
157
202
195
172
196
182
206
222
196
95
0
0
0
0
119
216
190
193
234
251
11
9
15
14
8
6
12
40
55
51
54
71
89
92
76
60
81
88
60
72
85
92
115
116
128
151
153
132
131
155
185
214
197
189
209
190
204
208
127
24
0
0
0
0
25
110
193
228
244
253
8
26
16
6
16
17
8
26
40
38
56
80
92
96
84
80
111
128
102
97
101
100
108
105
88
90
93
85
91
125
169
197
191
183
191
187
172
93
16
0
0
0
0
0
0
8
70
181
245
240
2
19
13
3
8
18
11
19
44
61
53
65
82
89
104
131
134
137
132
118
120
110
102
106
91
91
112
106
90
107
147
194
202
197
181
86
30
6
0
0
0
0
0
0
0
0
31
86
173
207
18
16
14
13
13
8
12
14
42
70
57
62
81
74
84
118
120
124
133
127
150
135
99
108
106
90
111
122
107
97
129
184
191
189
142
114
163
177
167
175
95
0
0
110
174
172
208
194
167
129
33
21
18
24
20
6
12
14
28
62
72
73
81
77
75
79
86
115
121
112
139
128
99
108
102
93
105
139
147
152
153
147
163
163
142
138
197
222
216
225
144
23
25
148
197
209
254
217
142
95
21
17
20
20
21
11
10
14
31
71
97
94
84
93
104
69
67
109
113
94
106
124
109
114
113
108
124
136
113
127
143
99
131
135
125
122
179
219
221
219
213
104
116
218
201
195
217
210
165
153
32
28
33
17
10
5
6
19
41
71
94
96
89
97
129
112
93
127
128
111
113
101
76
85
95
103
133
131
105
93
81
70
116
120
96
108
154
213
228
202
158
99
129
232
197
197
220
218
176
178
56
38
27
24
8
3
8
24
62
81
85
98
114
130
141
145
150
158
135
131
129
88
81
108
104
104
122
131
112
102
95
80
82
97
88
109
166
208
220
198
161
177
215
225
204
225
249
222
159
156
72
54
40
33
26
14
20
27
68
119
109
97
123
158
153
140
168
172
132
129
131
97
81
95
97
89
93
104
127
129
140
173
136
74
58
84
148
186
205
199
207
227
231
226
218
233
254
220
144
134
77
69
45
29
24
12
23
24
47
94
96
73
85
131
152
144
151
147
123
120
126
134
139
131
107
104
93
104
112
110
125
160
129
60
58
63
101
180
215
209
209
211
216
210
191
215
234
201
126
101
63
54
50
33
12
6
18
19
23
43
80
89
89
119
145
159
141
110
112
101
92
126
149
137
124
115
104
112
102
81
104
106
64
57
89
73
69
142
192
185
174
151
169
165
145
164
183
170
132
129
73
46
49
32
17
4
13
15
21
40
78
102
112
114
129
172
158
124
129
111
70
89
111
118
114
101
105
107
100
73
73
71
61
72
75
60
59
117
170
142
117
126
122
106
147
194
203
165
146
188
72
49
39
18
10
15
16
19
28
37
51
66
87
82
87
122
130
132
128
99
72
74
93
107
109
87
93
88
86
57
51
62
68
66
49
37
63
74
101
104
114
134
132
114
155
177
194
197
157
148
62
70
53
37
21
18
19
19
26
31
40
44
64
73
75
82
88
98
92
84
75
62
85
99
91
85
81
95
78
49
33
32
37
59
68
38
16
36
43
58
96
135
138
100
50
118
177
212
187
121
96
74
67
60
38
12
13
20
30
26
38
50
50
69
76
79
77
64
70
72
50
43
67
84
81
68
71
75
59
34
28
25
39
58
63
77
104
108
108
96
65
38
57
43
46
109
183
205
153
106
84
50
48
61
49
16
8
18
17
12
25
48
42
50
69
67
47
37
62
72
56
62
46
51
34
44
50
36
26
29
37
45
36
39
45
103
140
153
139
124
120
108
78
43
0
9
62
78
68
71
105
76
44
47
44
23
7
11
10
8
11
21
23
27
38
37
24
28
40
43
42
68
54
48
31
16
11
14
17
23
43
58
45
60
88
123
124
121
137
132
127
128
110
102
116
92
79
79
67
60
98
72
60
58
39
40
28
10
5
5
11
11
8
7
9
11
5
16
28
26
24
39
43
54
31
21
21
11
30
42
62
80
50
60
85
122
125
112
136
139
125
125
102
35
52
57
75
88
99
79
91
75
85
61
42
31
31
14
9
3
19
26
8
7
7
8
7
16
26
17
7
4
10
19
21
20
25
43
50
58
69
101
90
66
71
118
145
127
127
131
98
116
106
63
66
73
82
124
140
115
113
79
75
72
61
46
48
44
26
7
9
17
13
24
18
17
24
14
7
2
0
3
8
22
45
43
44
66
79
79
59
82
97
89
77
111
147
125
104
90
82
84
71
46
40
55
80
108
101
109
113
99
79
60
84
60
52
65
64
35
25
21
27
33
23
16
23
11
3
3
14
7
2
13
21
35
62
74
87
80
92
82
92
85
95
109
123
127
100
80
97
81
40
18
36
50
92
132
143
143
61
90
89
51
61
53
52
79
65
44
34
28
37
20
12
13
14
12
4
6
10
10
16
10
2
2
22
49
57
64
80
113
96
82
85
99
113
119
95
81
98
96
85
69
62
78
126
144
155
196
41
63
68
76
70
50
52
66
48
46
48
43
29
10
4
11
20
22
12
14
6
8
22
25
28
19
20
29
40
50
66
84
104
82
55
66
97
121
90
63
52
54
79
94
95
121
157
135
151
200
51
45
44
58
66
63
55
49
42
44
37
30
19
17
8
25
28
23
26
23
10
14
15
29
55
19
9
24
41
74
83
74
90
105
70
79
111
103
69
76
87
80
108
142
138
142
142
85
66
92
85
66
54
37
46
48
51
52
40
34
19
20
16
33
28
30
28
17
22
29
18
30
11
0
5
6
24
35
37
52
55
35
44
75
67
89
97
77
83
107
107
86
98
123
116
93
74
66
104
122
70
90
89
59
47
68
65
70
68
60
62
61
51
51
35
31
31
20
42
36
21
24
8
15
29
28
43
66
77
69
66
48
44
39
38
47
49
50
75
99
112
130
120
106
85
59
77
117
135
126
167
147
127
90
70
81
71
72
89
87
77
76
77
73
58
54
40
48
49
26
27
19
33
42
48
59
67
62
64
77
101
98
106
88
61
56
49
65
115
121
119
139
132
105
87
61
63
87
102
112
205
175
151
118
96
102
69
58
75
78
72
84
98
95
86
61
55
45
37
25
28
24
33
37
39
70
104
79
94
100
122
115
79
61
89
105
83
90
131
137
130
134
143
122
79
53
46
73
84
85
205
172
142
101
83
95
94
72
51
45
75
74
83
85
81
72
64
67
61
51
32
26
53
36
28
78
109
83
101
92
81
71
73
85
64
41
51
100
143
157
154
133
139
125
126
136
146
159
142
143
196
149
115
98
86
77
82
91
64
49
60
84
81
49
70
73
66
45
64
82
79
63
73
47
38
79
136
114
102
88
84
86
100
94
73
96
119
132
153
177
186
175
160
142
158
174
174
161
178
211
185
113
88
89
70
60
56
87
99
88
81
91
87
53
61
66
60
41
42
108
102
75
71
69
76
128
159
122
86
83
95
72
57
104
122
124
132
122
157
197
206
207
207
199
194
203
196
158
186
209
202
155
147
130
91
91
98
99
131
134
114
107
98
93
83
73
57
29
21
51
67
70
70
39
87
123
116
99
103
95
85
82
94
148
167
132
98
68
78
124
137
139
142
157
185
207
186
179
210
210
215
183
166
154
145
134
117
84
101
117
114
96
80
126
107
69
56
47
74
80
60
104
99
59
61
85
128
132
110
92
101
145
156
151
173
156
128
116
108
92
74
90
116
99
92
126
136
156
178
204
217
209
204
206
183
162
149
120
120
116
128
108
67
73
81
74
88
83
102
117
101
114
90
63
79
115
157
137
94
106
143
183
208
174
156
171
177
196
196
172
163
159
131
102
96
120
143
128
152
221
218
208
197
204
192
168
139
121
122
125
127
108
91
86
81
105
123
117
128
136
115
112
98
94
97
105
117
114
113
139
175
176
164
120
131
170
214
244
237
223
220
207
161
122
140
198
227
181
163
224
222
231
212
191
193
160
94
70
94
111
120
115
128
83
66
86
100
116
104
84
117
134
135
126
118
108
105
129
152
156
174
165
138
179
208
165
172
203
174
143
118
79
120
175
180
207
239
212
196
230
233
239
200
191
185
146
111
95
118
149
136
117
111
82
75
92
91
99
93
81
108
137
144
140
104
99
116
164
196
197
201
186
181
182
173
146
109
135
130
86
56
96
122
166
205
232
250
230
210
225
197
215
195
199
186
131
106
114
139
166
158
122
93
71
75
60
70
126
152
137
112
132
178
201
182
146
152
204
244
236
211
161
125
123
122
139
149
161
144
99
69
96
145
165
183
226
229
180
159
205
192
196
199
188
174
143
140
169
157
142
138
124
94
100
114
90
81
90
93
122
141
168
194
211
205
156
140
180
205
185
165
122
73
99
113
112
152
152
113
113
108
117
173
180
178
219
218
171
151
210
244
247
235
203
180
161
125
135
157
158
136
122
126
150
149
148
167
171
150
160
189
196
193
196
174
134
106
95
95
96
117
139
146
128
88
86
165
194
155
112
117
158
190
191
196
225
246
225
203
235
250
252
250
236
216
185
121
143
209
218
191
205
194
167
151
172
175
162
151
155
132
143
178
191
194
196
183
183
179
182
191
200
216
179
101
79
119
155
141
108
88
106
149
190
224
244
248
230
230
248
247
248
238
197
178
187
184
204
210
199
193
211
207
205
192
138
86
82
70
138
200
222
229
226
226
222
196
193
218
223
210
220
227
169
81
71
79
56
22
59
90
120
151
178
218
244
234
199
202
235
