P2
# Created by GIMP version 2.10.24 PNM plug-in
100 100
255
76
74
96
112
131
146
157
168
161
179
191
192
195
194
192
180
166
161
155
149
133
117
104
83
70
65
54
50
62
60
56
55
50
48
43
39
37
39
44
50
58
66
71
70
67
68
63
65
63
61
49
59
65
59
57
55
50
43
37
44
46
40
30
25
36
40
51
59
68
67
66
70
61
65
69
67
50
40
35
26
22
20
14
11
10
6
4
5
7
9
9
21
35
38
44
52
57
55
51
58
65
52
65
83
100
116
139
140
147
180
189
188
191
190
185
166
151
146
143
134
116
93
73
52
49
52
40
50
68
68
65
63
58
51
48
43
41
38
43
52
59
64
66
59
51
47
46
46
44
38
40
64
73
74
69
67
66
70
73
80
80
66
40
40
54
56
71
87
87
93
89
73
59
64
71
69
54
43
35
25
22
23
18
13
11
7
5
5
8
11
11
31
51
55
63
67
72
68
54
55
55
44
52
61
76
92
110
126
152
178
191
189
187
177
167
148
130
123
121
110
90
64
47
34
31
28
39
61
76
77
74
69
63
55
53
48
45
39
43
54
59
60
55
45
37
33
32
23
23
23
31
48
63
89
90
92
92
101
107
115
105
86
64
61
71
76
89
101
105
108
101
79
62
67
76
78
68
50
34
27
24
22
18
11
10
7
7
9
13
16
20
38
57
68
78
80
83
79
68
56
47
39
43
47
54
69
88
110
141
165
183
186
179
175
164
142
122
111
106
91
66
42
31
25
23
25
41
59
74
76
70
73
67
61
56
53
49
41
43
48
54
51
44
34
30
22
19
18
15
16
24
37
52
78
101
114
118
129
137
142
129
106
86
99
98
100
108
112
123
120
110
95
80
82
81
81
69
49
37
32
26
21
15
11
11
12
12
14
21
25
30
42
63
83
94
101
96
79
65
46
44
27
34
41
46
52
67
81
105
138
160
173
172
174
170
153
132
119
101
86
60
40
30
25
21
18
30
50
65
67
66
75
73
68
59
55
52
44
40
37
44
41
34
30
26
17
13
15
12
13
14
20
32
56
96
127
129
140
150
157
147
136
132
134
133
130
132
134
140
136
126
111
105
109
99
82
64
48
40
32
25
21
16
15
15
19
20
20
26
35
43
57
74
100
120
124
104
73
51
34
51
21
30
36
43
48
54
64
77
107
130
156
167
170
163
154
137
122
106
80
60
44
33
25
17
15
26
38
52
60
65
76
76
71
60
56
54
48
41
36
34
28
24
21
18
14
12
10
7
7
8
9
19
37
75
115
139
150
159
168
169
165
163
165
162
161
161
161
161
157
142
132
125
114
100
89
73
56
43
32
27
25
19
22
21
24
23
24
32
40
54
78
110
127
129
117
91
67
49
34
65
19
25
28
35
40
47
58
67
83
104
129
151
165
155
142
132
113
83
62
50
43
31
21
12
11
17
29
39
51
60
71
71
63
56
52
52
49
43
36
26
22
19
14
12
10
8
7
4
5
6
10
18
30
66
98
134
151
159
165
167
176
186
193
193
184
179
175
174
172
160
153
133
118
108
101
100
78
56
46
39
33
32
35
32
44
50
48
57
55
55
87
125
149
137
108
85
62
45
29
67
14
19
21
25
31
39
53
68
84
104
121
141
152
146
124
106
87
64
47
37
28
20
13
8
8
10
16
25
41
51
58
55
47
43
43
46
51
47
38
29
21
16
11
10
8
8
8
5
4
9
22
29
39
65
94
127
139
146
147
151
170
198
211
214
197
186
184
187
186
179
166
150
134
124
122
130
120
92
74
60
54
53
54
52
75
91
94
95
88
61
82
115
143
127
100
78
56
35
19
64
9
14
17
19
25
35
46
62
86
102
118
134
134
125
105
81
60
41
26
21
16
12
8
7
7
6
9
17
28
35
43
42
38
35
42
52
60
54
42
32
26
18
13
10
8
10
10
5
4
8
21
33
46
65
93
114
116
126
133
159
185
212
219
219
205
196
194
194
196
196
189
174
151
134
130
147
155
137
113
85
75
72
74
82
95
115
122
105
89
61
72
106
135
119
100
74
51
33
15
57
7
10
14
17
23
31
43
57
82
103
115
129
126
108
90
68
43
27
14
10
8
7
7
6
6
6
7
9
16
21
28
32
35
34
41
54
65
62
48
37
29
21
15
10
10
9
8
6
4
7
15
28
46
62
74
87
103
115
125
156
195
223
228
222
218
206
201
202
205
205
204
188
164
145
139
155
166
166
146
128
103
101
109
118
123
133
144
122
85
59
86
114
126
118
99
70
43
29
14
56
5
8
11
14
20
27
40
56
77
90
100
112
110
104
81
62
40
19
10
9
7
5
4
3
4
4
5
8
19
23
21
26
32
30
40
54
65
62
51
43
35
25
16
9
11
10
8
6
5
6
11
20
36
48
53
68
98
113
126
158
199
228
239
239
235
222
215
214
216
215
209
194
184
161
146
160
173
179
175
160
132
131
145
160
163
164
167
132
98
81
111
137
122
103
89
59
30
15
5
50
3
6
10
11
15
22
34
48
58
73
83
89
93
83
65
53
32
18
9
8
7
5
5
4
4
4
5
6
13
19
16
22
25
28
35
49
65
64
55
51
41
28
17
10
9
7
6
4
5
8
8
13
24
32
36
52
71
94
122
161
207
237
250
236
245
235
233
229
221
217
208
196
187
169
155
168
175
184
186
169
163
169
172
184
187
191
190
173
145
124
110
122
101
83
62
37
27
10
7
48
6
5
9
11
15
20
29
41
50
59
68
77
78
65
54
40
22
14
9
7
7
5
4
3
6
6
5
7
10
12
11
14
18
23
32
43
63
64
56
51
42
28
14
11
7
5
3
3
5
6
7
9
13
21
28
37
58
85
120
155
204
235
250
245
245
243
235
225
219
210
201
193
183
170
161
172
178
186
188
190
195
199
202
204
206
207
205
194
178
163
138
111
88
64
46
34
25
15
9
37
2
4
14
15
21
27
35
45
55
62
72
81
81
69
51
34
19
13
10
9
7
6
5
5
7
7
5
7
10
11
9
8
14
22
33
45
61
61
45
35
29
20
12
9
7
6
5
7
6
6
10
12
15
25
25
26
53
78
97
138
181
216
230
230
225
222
215
203
194
201
191
183
173
160
155
167
178
187
192
197
200
204
209
212
210
208
206
195
179
165
149
129
97
74
57
46
33
22
12
39
6
8
17
19
26
32
42
54
63
70
81
87
86
74
50
30
20
14
10
7
7
7
5
5
6
7
7
9
10
9
8
6
10
16
26
40
52
55
40
33
23
18
11
9
8
9
10
9
9
7
11
16
22
23
20
16
36
61
70
112
150
198
212
207
199
194
182
153
158
175
174
169
164
150
145
159
174
185
195
199
201
203
208
212
209
206
203
192
179
166
151
135
113
89
74
58
42
30
15
63
9
14
19
26
33
37
48
60
71
81
90
93
88
73
48
30
22
19
12
7
7
6
5
5
5
7
7
9
9
8
6
6
5
11
26
38
45
45
38
26
18
15
10
9
10
12
12
10
8
8
12
17
21
19
16
10
18
33
50
82
127
177
188
179
171
150
132
116
119
135
154
157
152
140
138
154
169
180
192
199
200
202
206
207
205
204
202
193
175
163
147
133
119
103
87
64
45
33
17
89
12
14
20
33
44
42
52
68
79
88
95
99
95
84
67
48
31
21
14
11
8
7
8
8
6
6
7
8
7
4
4
6
7
13
26
36
37
36
29
23
15
11
9
7
11
10
10
7
7
10
13
16
16
14
11
7
17
26
36
80
135
142
129
126
127
105
96
81
79
96
125
125
113
114
130
144
153
167
180
189
193
198
202
205
204
203
200
189
176
171
156
141
129
110
89
71
58
34
23
106
19
20
27
42
55
57
65
73
84
95
101
104
100
93
76
57
36
23
16
12
10
8
8
8
7
5
7
9
6
5
4
5
7
13
24
32
32
27
22
18
12
9
8
7
8
8
8
8
9
12
12
11
10
10
6
6
13
22
29
63
100
87
80
84
83
72
64
48
54
64
92
97
89
104
118
128
140
152
163
174
183
189
196
198
198
200
198
191
179
179
169
157
146
127
109
106
86
54
35
108
29
29
34
48
60
69
75
82
92
100
107
109
103
94
82
68
46
27
17
13
12
9
8
8
7
5
6
7
7
6
7
7
9
13
19
22
25
23
19
15
11
8
7
7
5
7
10
11
13
14
11
8
7
7
4
6
8
14
23
34
51
54
52
52
50
43
39
32
36
43
59
72
85
101
108
114
126
134
145
161
178
184
186
190
194
197
195
195
189
187
179
169
163
153
137
121
101
75
47
75
40
41
45
60
70
78
83
88
97
102
106
108
106
99
88
64
48
33
20
21
20
13
10
10
11
8
6
6
5
6
8
8
9
10
11
15
19
18
16
14
12
11
8
8
6
12
16
17
18
16
11
8
7
7
4
4
6
8
15
24
32
41
39
37
31
30
29
23
28
37
47
58
73
95
103
109
118
124
135
155
172
177
177
179
185
189
187
191
197
190
163
151
155
145
129
112
91
59
39
56
50
54
55
70
78
83
86
91
104
110
110
111
109
98
80
65
52
37
27
28
25
17
14
14
14
11
8
7
6
7
9
10
9
8
10
13
15
14
13
12
12
12
9
8
11
16
23
23
23
20
15
13
9
9
6
3
6
6
9
17
23
29
33
32
23
20
22
20
25
34
43
54
68
86
99
105
112
119
131
149
167
169
167
171
174
175
178
185
192
189
166
143
142
125
105
89
74
50
42
57
56
64
71
81
87
88
94
102
114
118
116
115
104
85
71
65
59
48
39
31
24
20
19
18
17
13
11
10
9
8
8
9
10
8
11
15
14
13
11
9
10
11
12
16
20
23
26
27
29
25
21
18
14
11
9
7
8
6
6
10
16
20
23
23
16
14
16
18
22
28
39
53
64
80
91
99
104
111
131
150
159
160
158
157
159
162
170
179
181
183
166
146
128
108
83
65
57
51
49
56
60
70
79
88
100
102
106
119
124
124
122
119
119
107
97
93
81
62
55
48
43
38
37
32
31
26
22
17
14
10
8
9
9
8
9
10
11
12
12
11
12
14
18
23
26
31
34
42
42
35
32
28
26
21
15
12
9
7
6
7
12
16
17
16
13
12
12
15
21
30
36
50
63
76
85
93
97
103
122
141
148
147
151
152
156
160
167
175
178
179
161
135
114
97
71
58
55
53
52
60
65
75
85
98
111
114
119
127
128
129
129
125
123
128
124
115
100
89
79
71
66
65
58
50
44
41
31
24
17
11
10
10
9
9
8
7
9
11
15
16
18
21
26
32
36
38
47
56
52
45
42
39
34
27
21
18
14
9
8
10
12
12
13
13
12
10
11
14
19
31
35
46
60
71
77
84
88
93
108
123
133
132
138
149
157
162
167
172
170
167
152
125
107
90
71
64
63
61
61
65
69
77
89
104
116
122
128
132
136
136
136
132
131
134
136
133
129
118
112
96
85
82
73
68
63
59
42
29
20
16
14
11
10
9
8
10
10
12
17
20
23
27
31
38
46
49
55
65
64
64
57
48
41
32
26
22
19
13
9
10
9
7
6
7
8
9
12
16
18
23
30
38
52
63
71
77
83
88
99
111
119
123
132
145
153
161
164
162
156
150
142
121
100
87
79
77
79
75
69
68
77
82
86
100
109
115
120
126
135
138
137
133
133
138
142
144
137
131
123
113
102
90
86
82
80
64
47
29
21
19
17
13
11
8
8
9
9
12
18
20
23
29
33
38
48
57
62
74
73
71
61
52
43
34
28
23
20
15
10
10
8
4
3
5
6
10
13
16
20
22
30
40
52
59
67
70
79
84
90
101
111
117
128
141
150
161
164
160
155
147
135
118
99
89
85
87
85
76
70
71
79
82
81
92
101
105
111
121
131
134
135
132
134
138
141
144
138
134
132
125
114
104
96
94
93
73
53
33
25
21
21
16
13
9
8
8
9
13
19
21
24
32
37
43
49
55
67
80
82
78
66
54
43
33
26
23
19
14
10
9
7
5
5
6
7
11
14
15
19
24
32
40
55
62
65
66
71
80
86
94
106
115
123
136
151
161
164
161
156
150
138
122
104
94
91
94
92
78
72
70
74
76
76
80
87
93
105
117
126
129
129
128
129
135
141
143
140
139
137
132
126
117
113
110
102
87
61
38
30
25
24
19
15
10
9
10
10
14
20
23
26
31
38
45
55
60
69
80
87
88
77
61
44
33
25
21
17
12
9
7
7
9
8
9
10
11
13
15
22
31
38
40
49
55
59
68
72
78
83
91
100
111
117
127
145
160
166
166
161
153
143
131
112
101
99
102
99
84
76
69
75
75
73
78
84
89
96
105
117
120
117
119
128
135
141
144
143
140
139
135
130
123
122
118
108
94
68
49
40
30
27
22
18
16
13
11
10
14
17
22
26
32
38
46
56
64
70
81
88
91
81
65
47
30
22
21
17
15
14
10
10
13
15
14
11
11
13
15
24
32
37
43
46
50
58
63
72
75
79
86
95
101
109
123
138
159
170
171
169
160
150
136
115
104
102
105
103
91
77
69
76
76
74
81
86
87
89
96
111
113
107
113
127
136
140
144
145
141
138
134
131
126
125
120
113
100
81
63
44
34
31
25
23
19
17
12
10
13
15
20
27
32
38
47
54
63
72
81
89
92
83
68
53
33
23
20
19
20
18
17
19
20
20
16
13
13
14
15
22
27
35
43
48
55
59
58
64
71
73
79
86
93
101
114
132
156
177
178
175
165
153
141
117
105
99
99
98
92
79
68
72
74
75
80
82
82
84
88
96
103
103
113
123
133
139
140
141
141
137
132
131
128
127
122
120
103
88
73
53
46
34
26
22
19
16
11
10
14
17
24
28
33
39
49
54
59
69
78
88
93
86
73
61
45
32
21
18
19
21
22
23
24
25
21
17
16
16
16
23
31
38
44
49
55
62
63
61
66
65
69
77
83
94
107
123
148
179
185
183
173
153
139
121
110
102
96
93
85
77
70
69
70
73
75
76
78
80
85
90
99
105
113
121
129
137
138
140
141
140
133
132
129
128
126
124
110
92
78
64
51
39
30
26
24
18
13
13
16
22
28
32
35
42
51
55
56
66
78
87
93
92
83
67
52
38
22
16
22
27
28
30
29
30
28
24
20
22
22
26
35
37
43
47
52
59
61
59
59
62
66
72
78
91
110
133
153
181
189
186
177
161
144
129
117
109
101
92
82
74
73
69
70
70
69
70
72
76
81
89
98
107
110
116
124
134
139
142
144
140
134
131
128
129
129
123
107
88
76
70
59
47
38
34
32
25
17
14
19
26
31
35
41
47
51
56
55
62
76
87
92
98
93
78
61
42
26
24
32
39
39
38
36
37
34
29
25
28
29
32
39
35
37
43
50
55
55
52
50
58
64
71
80
94
115
147
172
190
189
182
176
168
154
138
124
115
108
98
84
74
72
70
69
70
69
66
66
74
80
90
96
104
108
116
123
133
140
143
142
141
136
131
128
129
128
122
101
81
70
64
57
55
48
42
37
34
27
19
24
31
37
41
46
49
48
50
55
60
70
83
91
96
94
90
74
55
38
41
46
53
53
48
44
43
41
38
37
36
34
34
33
29
29
34
41
49
47
46
48
59
64
70
85
104
123
144
171
191
194
187
179
167
156
139
128
123
119
105
88
75
69
69
68
69
66
67
66
73
81
89
95
104
110
117
122
130
137
141
140
134
132
129
126
128
128
121
96
86
73
63
60
60
58
51
42
37
32
26
27
35
41
45
46
49
47
48
52
58
66
77
88
92
98
102
96
78
55
61
66
71
72
64
56
54
57
52
49
46
46
38
32
29
28
30
40
48
45
44
45
56
62
71
86
107
124
143
168
189
196
192
182
168
155
144
137
130
121
108
91
77
71
68
66
65
67
70
67
73
79
90
101
108
112
116
119
124
129
130
129
127
125
123
121
125
125
122
113
105
84
71
68
66
61
52
44
35
29
29
30
35
40
41
41
43
45
51
56
60
70
78
83
90
96
102
103
87
67
74
85
91
94
88
75
77
80
66
61
57
56
48
38
37
33
29
39
49
46
43
41
49
59
71
89
103
127
149
172
188
197
197
187
172
158
151
146
136
122
110
98
77
77
64
62
61
65
70
70
77
85
99
110
110
114
115
116
119
121
119
118
116
118
119
117
118
121
120
116
113
103
90
85
78
64
57
49
41
36
33
31
30
34
35
36
40
45
50
56
61
66
71
76
86
93
99
100
98
91
91
101
104
105
104
99
91
95
79
73
70
65
57
51
48
42
36
38
46
46
43
44
50
62
75
91
107
135
153
172
186
194
195
189
182
167
156
152
140
126
110
101
77
69
62
61
62
65
71
74
76
90
106
112
113
114
115
114
116
116
114
112
113
116
115
116
117
117
115
114
111
108
104
95
80
67
60
48
43
38
33
30
30
30
31
35
40
44
46
56
64
67
69
74
84
92
96
97
100
103
106
108
112
113
111
110
104
99
87
78
77
73
67
63
55
49
43
42
43
48
56
55
66
71
79
90
106
130
149
162
181
189
190
189
182
171
159
150
138
126
115
96
77
67
63
62
68
79
84
80
81
91
106
111
111
115
115
113
112
110
111
111
112
113
115
116
117
118
116
115
110
104
99
89
76
59
50
42
37
32
28
27
30
33
35
40
45
48
52
66
71
72
74
80
83
90
95
99
103
107
112
113
112
110
109
109
101
94
86
80
79
74
68
61
56
51
41
40
48
72
77
70
87
93
89
88
91
108
127
145
173
174
172
181
173
162
151
141
133
129
114
93
76
81
72
75
82
92
91
82
84
96
107
113
115
117
118
115
110
108
110
111
112
114
114
117
117
116
114
109
105
96
91
83
71
55
48
38
31
25
23
24
30
34
39
44
51
53
60
71
77
76
78
84
87
91
95
98
103
108
109
111
110
107
105
107
100
93
83
80
81
78
73
65
60
55
47
44
52
80
83
92
109
111
103
93
87
93
106
126
152
156
160
171
160
150
142
137
130
130
117
100
86
93
75
86
94
95
91
88
90
100
111
114
119
121
119
118
113
109
109
110
110
112
114
116
117
113
110
103
98
89
82
75
62
52
44
34
25
20
17
19
25
32
42
49
55
57
65
75
81
81
82
87
89
92
94
96
101
106
105
105
106
105
105
105
102
96
86
83
83
80
76
74
66
57
51
46
47
71
92
110
115
119
115
104
93
91
101
120
140
147
152
157
149
140
135
131
130
127
121
106
86
106
75
85
96
94
92
98
104
110
113
115
118
119
118
118
114
110
104
104
105
106
114
118
115
112
111
104
96
85
75
61
52
44
36
26
21
18
15
14
18
24
35
53
58
61
66
77
85
84
84
86
89
90
93
98
104
106
105
104
103
102
102
103
102
96
89
85
85
81
78
76
68
55
45
42
46
73
90
101
105
118
123
116
108
107
126
136
138
134
132
138
137
130
129
126
123
113
105
93
76
104
78
86
96
99
99
106
110
113
113
114
115
116
118
118
113
109
102
99
100
103
109
115
114
113
110
99
87
79
65
54
45
37
30
22
17
15
11
11
12
19
29
47
57
66
70
78
86
86
87
85
88
91
93
98
102
102
102
101
99
97
97
99
100
97
92
89
87
84
83
77
66
56
45
40
46
71
86
93
105
122
132
130
126
119
132
129
122
121
121
127
125
120
121
118
113
102
91
83
75
110
80
86
96
103
103
107
110
110
110
110
111
111
112
112
109
107
100
95
97
101
105
111
110
112
107
91
80
68
56
43
36
32
26
19
15
12
10
8
9
14
25
37
56
68
73
78
81
82
84
86
89
92
95
97
99
98
100
98
95
94
94
96
98
98
98
95
92
89
86
78
66
58
48
42
43
58
74
87
108
127
140
139
133
126
120
112
103
106
110
114
116
114
111
104
97
91
86
80
74
105
72
73
86
96
104
106
103
95
94
98
102
102
100
101
102
97
90
91
95
95
98
101
97
105
106
92
75
56
53
42
32
25
20
17
13
9
8
8
11
16
19
22
46
58
61
65
64
63
71
82
89
92
96
97
97
98
101
100
95
94
95
96
96
94
97
94
90
91
87
81
72
64
54
46
46
59
84
94
96
109
123
127
118
110
104
92
81
91
100
102
104
103
98
90
88
90
86
82
72
101
65
64
75
87
96
101
93
84
85
89
93
94
89
88
87
87
85
91
95
88
90
93
96
97
100
84
63
45
39
40
26
18
15
13
10
7
7
10
14
14
13
13
28
41
46
48
50
56
70
81
87
92
95
94
94
95
98
99
97
97
98
97
97
94
96
92
90
90
88
84
77
67
56
47
44
65
89
103
99
102
106
111
101
87
83
73
62
75
83
88
90
88
84
81
85
88
86
81
72
92
65
66
69
79
87
93
90
82
78
81
82
85
84
83
80
79
81
87
93
87
83
83
93
100
97
76
53
35
27
24
19
15
13
10
7
7
7
9
13
13
13
12
15
22
32
40
44
58
70
79
84
88
93
92
92
93
94
97
97
97
101
100
99
96
93
90
89
89
87
85
79
69
53
42
47
74
100
113
106
98
87
85
81
71
63
57
49
56
63
65
69
72
73
78
84
90
86
76
67
94
64
67
70
77
80
87
87
83
76
78
80
81
80
78
76
77
75
82
86
79
77
79
87
92
89
65
45
36
31
25
16
11
11
9
8
7
6
5
8
12
12
12
11
15
27
34
44
59
69
74
82
86
88
87
88
88
90
95
98
96
97
99
98
96
89
87
86
87
85
83
79
71
53
46
55
78
90
98
91
79
65
63
59
52
45
37
36
42
51
52
52
55
62
66
70
82
80
75
68
97
70
73
75
73
75
85
84
81
77
76
77
75
74
73
72
72
71
78
76
72
75
78
82
84
84
63
48
44
39
27
14
8
8
7
6
5
6
5
6
7
9
10
9
14
24
31
40
53
65
71
77
80
82
83
83
83
88
93
98
97
94
97
96
93
88
85
83
84
83
83
80
74
60
52
54
70
81
79
72
59
48
41
40
40
29
22
26
32
35
36
35
37
48
51
53
66
72
72
70
101
75
78
80
77
76
77
77
74
76
77
75
71
70
70
73
72
69
71
71
74
75
77
76
76
71
59
49
45
38
28
16
8
5
6
5
4
5
6
6
4
4
4
5
11
18
26
36
46
61
70
72
76
80
81
81
80
84
88
94
96
93
93
89
86
86
86
84
86
84
85
83
78
70
67
65
65
63
59
54
44
37
31
26
26
22
19
20
23
21
22
24
25
33
36
38
47
56
59
65
99
72
76
79
73
67
70
72
73
76
77
70
68
68
70
72
71
70
71
72
75
71
70
69
67
62
53
45
38
27
17
11
8
9
11
9
7
6
6
7
6
6
5
8
11
15
23
30
44
60
69
71
76
79
76
69
69
69
77
84
85
81
79
77
80
91
95
95
95
94
95
90
85
81
76
72
73
65
62
54
43
34
31
27
23
19
17
18
19
18
22
28
30
34
36
32
38
48
54
64
93
71
72
72
64
63
71
71
72
75
74
66
64
66
71
72
74
74
74
76
70
62
54
54
51
49
42
35
28
17
11
10
14
17
17
15
11
8
9
11
12
11
10
15
18
17
19
25
46
58
70
72
76
75
62
57
56
55
59
68
70
66
65
66
73
97
112
113
110
107
109
100
93
91
86
81
82
81
77
61
45
36
34
31
28
22
18
18
20
23
28
31
37
44
40
32
33
41
53
65
87
67
63
60
58
62
67
68
66
71
71
68
64
66
71
72
74
76
77
73
54
41
34
35
34
33
27
23
19
13
10
9
11
16
23
21
17
14
13
15
16
18
17
21
22
22
23
27
43
57
71
74
76
76
69
57
49
46
48
52
52
49
52
62
80
111
127
129
127
122
117
105
99
96
95
95
96
94
87
65
48
39
37
36
33
28
24
21
24
29
37
40
45
52
50
40
35
38
54
62
80
65
58
53
55
59
61
63
62
67
70
70
68
68
72
73
74
76
75
66
46
36
29
27
27
26
20
15
14
12
8
6
11
17
21
18
17
20
22
22
30
35
34
33
33
33
33
35
53
59
68
68
69
68
58
49
42
36
33
35
35
36
39
55
77
108
127
135
137
132
122
116
117
116
115
112
101
97
90
66
53
45
44
43
37
32
28
24
26
35
46
52
58
65
63
53
54
44
46
58
76
64
58
50
50
52
52
54
59
64
68
71
70
70
71
71
71
72
72
65
49
39
32
28
26
25
19
14
13
12
8
5
7
13
16
12
16
28
31
31
44
50
50
49
48
46
41
46
64
66
64
61
59
60
50
40
35
31
25
22
21
23
26
44
68
97
118
134
139
143
137
142
148
144
146
140
116
104
95
77
66
62
57
47
41
33
29
28
32
41
54
63
73
83
81
68
74
69
52
56
71
58
52
48
47
47
48
51
56
59
63
68
69
69
70
69
69
69
69
62
53
42
31
26
23
21
16
13
11
7
5
5
4
7
9
11
21
33
43
46
56
63
65
63
61
61
57
63
64
61
56
57
53
47
44
37
31
27
19
16
15
16
17
32
50
78
105
127
141
153
162
167
171
170
169
162
143
127
103
89
82
79
69
53
48
38
33
33
40
53
65
74
83
93
96
90
89
87
73
70
67
57
54
51
47
45
46
48
53
57
60
65
67
67
65
62
63
62
63
58
50
36
28
23
21
20
15
12
8
6
6
7
6
8
11
20
29
37
46
56
68
73
71
68
66
63
61
62
62
57
51
48
45
39
38
32
27
20
15
14
11
9
9
18
38
53
85
114
131
151
159
161
170
172
170
170
152
140
120
114
102
94
81
63
55
48
40
38
48
63
76
85
90
94
97
98
93
88
85
69
65
59
57
53
48
44
44
46
51
55
59
63
65
62
58
54
52
52
54
51
44
33
24
22
21
19
16
12
7
7
8
9
8
11
16
26
34
45
52
64
77
80
73
68
65
60
55
53
56
50
44
41
39
35
30
24
21
16
13
13
10
6
6
9
17
32
60
87
110
130
131
140
147
154
171
177
157
149
148
140
129
118
103
84
67
60
50
45
55
69
84
93
99
96
96
94
85
81
85
73
67
64
59
54
47
42
40
43
48
52
57
62
64
58
48
43
42
43
46
46
41
32
20
20
20
18
17
13
7
7
9
9
12
17
21
27
39
51
60
70
82
85
81
73
66
58
51
46
46
39
37
35
33
30
22
16
15
12
11
12
11
7
5
7
11
18
37
52
77
96
105
119
131
152
172
183
177
176
175
165
158
142
127
112
87
74
62
53
58
76
92
97
99
95
91
86
77
72
74
73
66
63
58
55
46
42
38
42
46
51
57
58
59
55
43
36
37
42
44
42
37
29
20
18
18
16
15
12
8
7
11
15
20
24
33
41
49
58
65
72
82
85
79
71
66
55
44
41
37
32
30
29
30
27
17
12
10
10
11
12
11
8
6
7
7
12
23
35
54
76
92
107
132
156
172
186
191
194
193
186
175
160
144
129
111
93
79
63
72
92
101
101
96
92
87
81
72
68
67
67
63
60
55
49
44
40
36
40
47
51
52
52
51
49
39
37
38
43
41
36
30
23
20
17
14
14
12
10
10
9
13
21
28
35
48
56
62
67
68
71
78
80
73
68
60
47
41
37
33
28
24
25
26
23
14
10
8
7
9
11
10
8
8
7
3
7
18
32
46
66
89
103
125
152
180
195
199
201
202
195
184
173
157
144
132
115
98
82
89
106
99
95
91
89
86
79
71
70
68
65
62
59
53
46
42
38
36
38
45
47
48
50
48
45
41
40
37
38
35
28
22
18
20
16
11
12
11
11
12
12
17
23
33
44
57
67
73
77
77
79
77
77
70
64
57
46
40
31
29
26
21
19
20
17
12
11
7
6
7
9
8
7
7
7
4
6
15
28
36
50
75
101
128
156
185
203
206
206
205
195
189
180
170
156
144
131
117
108
101
108
96
88
84
86
85
81
73
70
67
61
64
58
53
48
42
40
41
39
39
44
47
45
42
41
40
39
39
35
29
21
18
17
18
16
12
11
11
12
13
16
18
25
36
49
60
70
74
79
82
82
81
77
70
62
53
46
35
28
27
23
19
17
14
12
11
9
7
7
7
6
6
7
6
4
5
8
15
23
30
42
65
100
131
156
182
205
209
209
207
202
193
186
176
168
157
144
134
129
122
114
102
93
86
84
83
80
74
70
66
62
66
60
57
55
51
47
47
43
42
47
46
40
35
36
37
38
37
30
24
19
17
17
18
17
14
14
13
13
14
19
22
22
29
43
57
62
65
74
76
77
81
80
75
65
55
43
34
30
28
24
20
17
14
11
12
11
8
7
7
7
7
8
8
6
5
7
16
25
29
43
73
100
131
155
181
202
202
202
205
203
200
195
185
177
168
154
144
139
132
125
113
108
101
86
80
78
75
71
63
63
65
59
58
57
55
53
51
47
47
51
47
41
37
34
35
35
33
25
21
20
18
19
19
18
16
15
14
16
18
17
19
19
27
38
46
48
53
65
72
77
86
87
82
67
57
47
38
32
28
24
23
19
15
13
13
11
9
8
8
7
8
8
9
8
8
11
18
25
32
47
78
99
132
162
182
200
198
197
195
195
199
199
190
182
176
166
155
143
137
130
126
114
108
93
82
78
77
72
63
59
64
56
56
57
56
54
54
53
50
48
46
43
38
32
32
32
26
21
18
16
17
18
18
19
17
14
15
17
18
17
16
18
27
34
34
39
43
55
67
76
87
90
87
75
60
54
43
34
32
27
25
21
17
15
12
10
10
9
7
8
9
9
8
8
9
12
18
26
36
56
76
96
119
156
176
192
192
189
183
191
198
200
195
188
181
169
159
146
137
134
132
123
111
96
82
79
77
74
64
58
59
56
55
53
56
56
54
55
52
45
41
39
33
28
27
24
21
21
17
14
14
14
15
16
15
14
16
18
18
16
16
17
26
31
28
32
40
50
59
69
81
88
88
78
66
59
49
40
34
26
24
25
21
15
13
12
12
10
8
8
9
9
8
8
10
14
20
29
39
54
75
98
111
131
152
178
190
185
175
192
204
204
197
192
188
175
163
153
140
132
131
126
113
100
87
80
73
71
65
57
53
52
51
50
53
55
54
53
49
43
37
35
30
26
23
24
21
20
16
14
13
13
14
16
16
14
15
15
15
14
13
15
20
24
23
27
37
44
51
63
75
81
83
81
73
65
57
47
37
30
25
26
22
20
17
15
15
12
8
9
10
8
7
7
10
16
24
35
47
59
76
95
110
126
146
166
180
171
171
187
198
203
199
193
190
181
168
160
147
138
131
127
115
106
100
83
74
67
62
55
53
47
48
47
53
55
54
49
44
38
36
35
32
27
23
23
21
20
17
15
14
13
17
19
20
17
16
14
14
13
14
16
18
19
20
23
28
37
47
55
66
72
78
80
78
66
55
50
47
39
30
27
24
23
22
17
14
11
10
11
11
10
9
10
13
16
26
37
50
61
74
91
104
121
136
151
162
166
170
181
193
199
198
193
185
179
174
164
152
140
132
128
123
119
105
90
76
65
59
54
51
47
47
48
54
56
56
53
50
46
42
41
32
24
27
28
26
24
20
17
14
17
25
25
24
20
20
17
15
16
18
18
19
21
22
22
23
33
41
47
58
62
67
72
70
61
47
42
51
47
39
36
31
26
23
17
13
14
15
14
12
12
11
11
16
19
23
30
43
55
69
95
112
126
126
137
155
164
167
178
183
177
181
177
164
159
162
161
153
145
139
135
128
119
108
101
81
66
60
52
54
53
53
54
56
56
56
55
51
49
47
41
28
27
33
31
32
29
24
23
24
30
35
34
30
28
26
24
22
21
23
24
26
29
31
29
26
31
33
36
47
54
57
60
59
51
41
39
50
53
50
44
34
28
24
21
16
15
15
16
16
13
12
14
18
21
24
31
39
58
76
102
116
125
120
124
148
157
166
173
171
162
160
151
144
143
148
156
153
148
145
141
135
120
112
103
83
73
62
56
58
56
57
58
57
58
58
54
51
50
45
36
29
29
35
38
36
33
29
29
35
42
45
43
38
35
36
34
31
30
30
33
36
36
35
35
30
27
27
30
39
43
46
49
48
41
36
35
45
50
54
44
34
30
27
24
20
17
16
16
15
13
14
15
17
21
27
33
37
57
85
101
110
111
107
113
134
151
160
158
157
149
143
135
129
134
143
152
152
150
151
142
137
121
109
100
92
80
67
60
60
58
60
62
61
61
57
53
53
51
44
37
31
30
35
39
38
39
36
35
41
48
50
48
45
43
47
43
41
37
38
41
39
37
37
32
26
24
28
32
34
36
44
47
43
36
39
40
42
50
59
53
45
37
28
23
21
19
18
18
17
15
15
14
17
22
26
31
37
49
72
86
94
94
91
101
125
133
131
133
136
132
124
123
123
130
140
154
153
148
146
136
128
120
113
104
96
86
73
62
62
60
61
62
61
60
56
54
54
49
42
35
29
29
34
38
41
44
42
42
48
53
58
56
55
56
56
55
51
47
44
45
40
36
35
30
24
23
26
29
28
35
40
43
44
42
44
49
49
58
64
57
50
43
31
26
23
21
20
20
18
17
17
16
20
24
27
32
34
43
55
67
72
76
78
79
95
109
103
109
111
114
112
118
125
132
145
155
151
147
145
138
126
121
117
111
103
92
79
68
68
67
63
61
58
57
56
53
49
46
39
31
26
29
33
36
41
44
47
48
53
61
64
65
67
67
65
65
62
57
52
47
42
37
32
29
24
23
23
25
27
31
33
37
41
48
55
60
62
70
68
58
55
47
37
30
25
23
21
21
17
16
17
19
23
26
28
31
36
39
42
47
51
60
67
68
75
81
84
97
101
106
114
126
134
142
152
156
152
146
142
139
131
126
122
117
110
97
81
72
70
69
60
59
55
54
55
51
46
42
37
33
27
27
34
37
38
42
49
49
50
60
65
68
71
70
67
66
65
58
53
49
42
37
30
26
22
22
25
29
28
31
38
37
41
50
68
80
76
92
97
86
77
60
42
32
32
25
19
19
16
15
16
19
23
25
28
30
32
35
39
43
42
45
49
67
97
96
93
101
114
117
123
132
152
165
167
161
154
152
159
159
148
136
130
124
111
98
83
76
72
71
59
58
55
54
54
51
46
42
37
32
27
25
31
35
37
41
48
54
53
59
64
69
72
71
68
67
66
62
54
46
41
36
29
22
21
26
31
36
33
38
43
41
43
54
72
95
93
102
115
103
87
67
49
46
46
37
24
19
16
14
15
18
22
24
27
26
28
31
38
42
43
37
38
58
102
124
119
119
125
129
134
144
168
174
175
165
161
160
169
166
161
147
135
127
113
101
88
82
73
73
65
58
54
50
50
50
46
42
37
30
27
27
28
32
39
48
55
59
60
62
64
68
71
71
71
70
68
63
55
45
38
32
27
27
30
32
35
39
42
44
45
46
53
68
88
105
115
126
129
109
94
76
68
68
65
53
35
20
12
11
14
17
20
24
25
24
25
28
35
40
43
37
36
48
86
129
144
142
142
144
154
168
181
178
173
169
170
173
182
172
159
147
136
125
115
107
99
89
73
75
68
65
57
50
45
43
40
38
34
29
28
30
31
36
42
49
54
59
66
68
68
72
75
77
72
67
67
61
50
41
38
32
26
30
36
39
44
52
59
59
61
60
67
84
96
113
124
137
142
129
108
91
83
78
77
61
39
23
18
14
13
12
15
20
21
20
22
21
23
34
37
31
27
42
76
106
131
135
143
162
172
181
186
183
175
173
177
182
186
173
156
152
142
128
119
110
96
88
70
75
70
69
59
53
46
40
35
35
32
29
30
33
36
40
44
49
55
60
67
72
72
77
81
82
70
68
65
56
46
42
38
35
32
34
41
48
58
68
74
74
74
74
83
101
113
119
133
146
156
149
135
114
102
94
91
69
46
30
25
20
14
10
11
16
16
17
20
20
19
25
27
23
21
30
62
89
109
126
150
177
189
193
190
185
181
178
183
186
187
176
165
169
155
141
132
115
97
88
72
80
77
72
63
53
46
41
38
36
33
31
33
35
38
41
47
49
53
58
64
75
78
82
86
85
79
74
66
59
52
48
41
39
41
46
55
61
66
79
90
91
92
94
102
112
122
132
146
164
170
165
150
135
122
112
103
77
57
39
29
19
12
7
7
12
13
17
22
22
20
20
18
17
17
22
42
70
95
122
152
184
194
194
192
187
184
181
182
182
185
188
186
186
181
166
143
119
105
92
72
82
78
72
64
55
46
41
40
40
36
33
36
38
43
44
45
49
51
61
68
77
82
82
84
83
78
74
66
63
60
56
49
47
46
53
62
71
72
79
92
97
101
113
135
133
133
140
153
168
175
167
169
165
149
123
105
76
55
42
30
18
10
8
8
10
11
16
20
20
16
12
12
13
15
21
37
58
85
123
152
178
182
183
181
182
185
189
189
188
193
197
199
194
181
165
135
121
111
95
75
82
77
70
62
56
48
44
42
45
43
38
42
43
45
43
42
45
56
67
76
82
83
81
79
78
74
70
66
65
66
65
58
53
51
57
69
83
84
82
89
97
109
137
157
158
147
143
160
178
184
175
178
185
165
136
103
72
52
44
31
20
10
9
10
9
10
12
15
15
14
12
10
11
14
18
32
54
75
110
147
167
165
167
167
172
181
195
200
201
206
211
207
196
178
155
135
122
113
98
77
84
78
68
63
55
50
49
48
48
47
42
43
43
41
40
41
48
62
69
80
84
85
80
74
74
70
66
65
65
67
70
66
61
60
66
81
94
96
97
98
101
121
152
171
166
157
154
174
190
200
203
202
199
168
127
99
75
55
46
33
25
13
9
10
10
10
10
12
10
11
10
11
10
13
16
25
40
65
97
133
158
160
157
157
167
180
200
211
214
216
217
213
203
187
159
137
121
110
98
77
86
81
69
65
59
56
56
57
52
49
47
46
46
44
45
48
54
63
69
72
75
78
74
71
70
66
64
65
66
70
74
73
69
67
75
87
96
100
115
114
124
134
160
190
186
185
180
200
202
210
198
192
192
165
131
94
73
59
44
29
21
14
10
10
9
9
9
9
8
8
8
9
9
12
14
19
31
52
82
114
146
155
156
159
172
190
208
220
224
225
220
215
206
189
169
146
126
110
100
78
88
82
72
67
62
65
66
64
56
56
57
54
50
50
51
56
61
67
70
65
65
66
64
65
67
64
64
65
68
73
76
78
78
73
80
90
99
116
138
140
145
155
179
205
211
211
212
223
222
211
178
168
164
155
128
84
70
57
34
20
11
11
11
9
8
8
8
8
7
7
7
6
6
9
12
17
24
44
72
101
135
139
143
165
184
199
217
227
230
230
225
217
208
198
182
155
132
111
100
80
89
81
74
74
69
69
68
67
65
66
65
63
64
64
61
63
66
68
68
63
61
61
59
62
64
64
64
67
73
78
80
82
79
81
84
95
102
123
142
159
177
183
191
212
223
226
227
234
233
222
196
175
133
107
97
65
41
34
21
13
8
7
8
8
8
7
7
7
8
8
8
7
7
10
11
14
19
34
53
85
124
134
144
167
180
202
222
230
233
232
227
220
212
204
176
160
137
118
104
79
87
81
78
78
76
77
75
72
73
71
73
75
79
81
80
75
70
69
67
65
63
61
63
63
66
67
68
72
77
82
83
83
80
82
89
101
108
128
148
168
186
191
193
204
215
219
225
227
222
223
202
174
133
94
77
53
36
23
16
12
10
8
8
9
8
6
6
6
10
11
11
13
12
13
12
14
20
37
56
67
93
110
134
153
172
190
214
222
221
221
221
217
211
197
173
159
144
126
107
83
89
81
76
79
82
86
84
81
82
80
82
90
96
99
97
88
73
71
71
71
70
68
72
73
72
69
72
76
81
84
83
80
79
80
92
105
109
131
156
171
175
172
170
177
184
196
201
196
208
217
184
165
154
125
93
62
48
34
18
13
12
10
9
8
8
8
9
11
13
14
14
15
16
15
12
14
25
46
69
66
61
93
115
132
156
183
204
204
203
204
204
204
205
194
175
162
148
132
110
83
90
83
79
82
85
90
91
90
87
87
95
110
112
114
110
106
95
75
71
72
73
74
77
80
80
77
79
78
81
82
81
78
78
77
87
102
109
124
144
165
168
161
156
150
152
166
178
185
201
210
195
177
168
142
96
66
50
40
20
13
12
9
8
6
6
7
9
14
14
14
16
17
19
17
17
24
35
54
58
52
42
63
93
109
140
166
184
185
183
179
187
190
199
193
176
162
149
131
109
84
91
85
87
91
92
97
97
98
94
100
109
122
125
125
127
115
104
86
72
70
74
76
79
80
82
83
84
81
80
81
80
80
80
79
88
98
105
118
132
148
149
139
134
138
140
143
153
175
199
207
202
194
178
139
109
74
51
37
18
12
12
8
7
7
7
7
12
14
17
18
19
21
20
20
22
26
33
42
37
28
24
37
57
80
109
134
153
155
154
157
170
182
195
194
178
163
145
127
110
86
96
95
103
104
106
107
107
110
106
113
125
136
139
140
123
108
101
84
73
72
75
75
76
78
82
83
83
80
79
79
80
81
82
82
91
100
105
113
124
125
114
106
115
128
136
140
150
169
187
199
198
190
178
150
116
84
60
36
19
12
12
10
8
7
8
11
17
17
20
22
22
24
21
20
19
18
23
27
19
14
17
28
41
57
73
91
109
110
115
139
163
179
190
191
178
164
144
126
111
88
104
104
114
115
120
120
123
124
126
136
146
151
142
135
115
101
91
82
73
74
76
75
76
81
84
83
82
79
77
78
81
83
85
87
93
96
98
104
104
102
94
94
108
116
127
135
141
161
183
193
195
183
175
146
115
95
67
41
22
12
9
8
7
6
9
14
18
23
27
30
28
27
26
22
22
19
15
15
8
6
11
20
29
37
51
56
70
87
101
125
149
170
183
184
171
160
142
126
110
88
108
115
122
131
133
135
137
140
142
150
161
168
155
131
120
106
89
78
76
78
80
82
78
82
85
83
80
77
76
79
82
84
87
89
88
87
87
88
88
85
85
90
98
103
111
117
130
154
177
184
185
177
163
136
114
93
74
50
25
13
8
8
6
5
9
15
22
28
32
35
33
33
29
26
26
24
17
10
8
7
8
14
18
23
27
32
43
60
84
111
136
153
167
164
157
143
131
122
110
89
109
114
116
132
142
147
150
152
153
159
167
177
168
143
141
135
112
91
85
88
97
100
80
80
81
77
75
75
75
75
75
79
83
83
81
77
75
79
85
83
84
91
91
93
95
96
111
143
160
163
160
150
139
120
110
87
79
53
26
17
11
8
8
10
11
18
26
29
32
34
38
39
34
32
31
29
22
13
11
7
5
6
8
15
18
24
33
40
57
89
113
123
129
129
128
118
113
113
108
89
105
108
109
126
133
145
156
163
164
169
175
183
179
166
162
157
135
111
101
104
117
119
98
79
78
75
72
73
71
69
69
69
71
71
69
68
67
73
82
81
86
92
90
88
87
85
94
119
139
151
142
127
120
108
93
75
71
48
32
20
14
11
11
13
16
23
27
30
35
38
44
45
44
41
38
34
28
19
14
8
5
4
4
9
14
18
23
27
43
62
84
95
102
106
104
98
97
103
101
87
101
103
103
117
129
151
162
169
177
181
183
190
192
190
185
173
156
135
120
127
132
128
108
87
75
73
70
68
67
65
64
62
60
59
58
59
61
67
76
83
86
87
85
82
79
74
79
98
125
138
124
107
95
89
77
69
53
38
30
23
16
12
12
16
21
24
28
33
39
44
47
49
51
50
47
41
34
26
19
13
9
7
6
6
9
12
15
18
26
34
52
66
80
85
87
81
80
88
93
82
100
111
116
130
147
158
168
174
179
182
187
191
192
189
186
177
171
157
142
147
142
132
107
89
74
72
69
65
65
63
60
55
51
52
53
54
53
56
64
73
79
84
83
79
79
74
81
105
109
115
103
89
79
76
64
54
40
29
25
21
19
15
16
22
26
29
33
36
40
45
49
52
54
52
52
48
37
27
25
20
13
13
11
8
7
7
9
12
16
21
29
39
58
73
78
66
65
74
83
76
100
115
129
143
156
166
173
178
183
187
189
191
192
188
182
177
172
161
151
147
141
129
106
89
71
67
65
64
64
59
54
52
48
46
46
45
44
48
57
65
71
77
77
78
81
76
75
94
99
91
85
75
66
63
56
45
35
25
20
17
17
14
18
24
29
32
35
38
41
45
54
57
61
61
56
47
40
32
27
21
16
15
12
8
6
5
5
7
9
11
18
28
44
54
62
59
57
61
71
76
82
97
110
121
133
141
147
151
154
157
160
161
162
160
154
147
143
138
134
127
121
115
105
89
78
82
89
101
114
118
126
133
142
142
134
125
118
112
107
109
112
108
97
94
94
84
80
73
67
64
61
58
59
62
54
46
44
47
50
48
46
43
46
50
55
59
58
58
63
69
77
83
80
75
69
59
60
50
43
38
43
61
84
101
92
61
47
49
55
69
84
86
72
63
62
74
78
78
77
